<?xml version="1.0" encoding="UTF-8"?>
<svg version="1.1" xmlns="http://www.w3.org/2000/svg" width="612" height="408">
<path d="M0 0 C1.38613614 -0.00307895 1.38613614 -0.00307895 2.80027503 -0.0062201 C5.90777091 -0.01189051 9.01522248 -0.0104328 12.12272263 -0.00901413 C14.36879075 -0.01159773 16.61485841 -0.01461088 18.86092544 -0.01801753 C25.04192322 -0.0260912 31.2229094 -0.02787731 37.40391183 -0.028615 C43.38263401 -0.03027497 49.36135083 -0.03659252 55.34006972 -0.04269341 C71.35613122 -0.05874684 87.37219175 -0.06465572 103.38825984 -0.06944216 C110.96504782 -0.07177853 118.54183504 -0.0753812 126.11862243 -0.07913754 C152.05587211 -0.09197179 177.99312136 -0.10269161 203.93037415 -0.10614014 C205.55827494 -0.10636177 207.18617573 -0.10658355 208.81407653 -0.10680549 C210.44589821 -0.10702613 212.07771988 -0.10724661 213.70954156 -0.10746694 C216.98323457 -0.10790949 220.25692757 -0.1083566 223.53062057 -0.10880661 C224.34230493 -0.108916 225.15398929 -0.10902539 225.99027015 -0.1091381 C252.31377289 -0.11276936 278.6372481 -0.12869267 304.9607403 -0.15199697 C332.79328027 -0.1765922 360.62580451 -0.19031281 388.45835567 -0.19150805 C391.5135185 -0.19167951 394.56868132 -0.19189494 397.62384415 -0.19214249 C398.75223982 -0.19222614 398.75223982 -0.19222614 399.90343136 -0.19231148 C412.0094263 -0.19346212 424.11539298 -0.20448507 436.22137837 -0.21902954 C448.38852254 -0.23339478 460.55563048 -0.23663135 472.72278079 -0.22858956 C479.31430732 -0.22452581 485.90575766 -0.2256402 492.4972744 -0.23964691 C498.5312263 -0.25235173 504.56501131 -0.25121828 510.59896287 -0.2390562 C512.78199031 -0.2370933 514.96502944 -0.2402049 517.14804044 -0.24890056 C520.11656055 -0.25997667 523.08448996 -0.25251556 526.05299377 -0.24050903 C527.32256834 -0.25190182 527.32256834 -0.25190182 528.61779088 -0.26352477 C538.98852219 -0.17304836 547.35123309 2.83253248 554.77817917 10.13142776 C563.54526172 20.10446272 564.22722822 32.39025324 564.1591301 45.1289711 C564.16259463 46.50362504 564.1673645 47.8782762 564.17331183 49.25292164 C564.18574253 52.99751259 564.179688 56.74187181 564.17035317 60.48646319 C564.16353014 64.53767886 564.17406 68.58885631 564.18229294 72.64006424 C564.19559828 80.56370076 564.19276673 88.48725178 564.18405502 96.41089159 C564.17726577 102.85405555 564.17636711 109.29719565 564.17962646 115.74036217 C564.18008616 116.65917818 564.18054586 117.5779942 564.18101949 118.52465313 C564.18197872 120.39152122 564.18295136 122.2583893 564.18393727 124.12525738 C564.19248192 141.61100464 564.18267181 159.09670463 564.16653617 176.58244414 C564.15313607 191.56730154 564.15546034 206.5520892 564.16929245 221.53694534 C564.18536849 238.96075766 564.19165567 256.38452859 564.18245566 273.80834728 C564.18150007 275.66845738 564.18055695 277.52856749 564.17962646 279.3886776 C564.17916364 280.30375721 564.17870081 281.21883681 564.17822396 282.16164611 C564.17563997 288.59226685 564.17999233 295.02286121 564.18706512 301.45347786 C564.19550294 309.29722155 564.19315229 317.14087524 564.17722289 324.9846087 C564.16937043 328.98220396 564.16619653 332.97964948 564.17617035 336.97724342 C564.18518111 340.64447052 564.1800808 344.31141062 564.16423769 347.97861207 C564.15935657 349.91696473 564.16902904 351.85533768 564.17940938 353.79366869 C564.09119467 367.08189134 562.08727266 378.23848869 552.77817917 388.13142776 C544.83501061 395.0228876 536.51656007 396.43929658 526.30746937 396.38311005 C525.38077132 396.38601693 524.45407328 396.38892381 523.49929348 396.39191878 C520.39492841 396.39921595 517.29076117 396.39227663 514.18639755 396.38539505 C511.93789012 396.38769959 509.68938344 396.39087607 507.44087833 396.39484954 C501.26245047 396.40320712 495.08408431 396.39906784 488.90565622 396.3928771 C482.92665629 396.38882173 476.94766668 396.39414476 470.96866912 396.39917183 C457.98522634 396.40970186 445.00180325 396.40879107 432.0183586 396.40301401 C420.65570836 396.39798296 409.29306533 396.39666946 397.9304142 396.3990593 C397.17671124 396.39921207 396.42300829 396.39936484 395.64646585 396.39952224 C392.58693124 396.40014491 389.52739664 396.40078171 386.46786204 396.40144176 C357.76576849 396.40756003 329.06368748 396.40201253 300.36159586 396.39124797 C274.8633246 396.3817577 249.36507331 396.38260518 223.86680222 396.39216995 C195.21872286 396.40288035 166.57065459 396.40712516 137.92257351 396.40094543 C134.86830231 396.40030399 131.81403111 396.39967831 128.7597599 396.3990593 C128.0077217 396.39890114 127.2556835 396.39874299 126.48085626 396.39858004 C115.12623631 396.39630547 103.77162438 396.39896497 92.41700554 396.4040184 C79.50501175 396.4097363 66.59304072 396.40830861 53.68104977 396.39745691 C47.09167662 396.39210159 40.50233568 396.3901494 33.91296196 396.39675522 C27.88225354 396.40270958 21.85162333 396.39944793 15.82092201 396.38880011 C13.63797451 396.38656391 11.45502042 396.38770729 9.27207715 396.39255169 C6.30620072 396.39862925 3.34059254 396.39239884 0.37473011 396.38311005 C-0.47370825 396.38779238 -1.32214662 396.39247471 -2.19629523 396.39729893 C-12.6075913 396.33208688 -20.339322 394.15401763 -28.22182083 387.13142776 C-37.76783399 376.76155606 -38.6743889 364.54305207 -38.60277176 351.00653458 C-38.60623615 349.61808088 -38.61100593 348.22962995 -38.61695349 346.84118468 C-38.62938582 343.05852857 -38.62332893 339.27610182 -38.61399484 335.49344528 C-38.60717261 331.40136782 -38.61770117 327.30932824 -38.6259346 323.21725845 C-38.63924008 315.21408179 -38.63640854 307.21098977 -38.62769668 299.20780986 C-38.62090844 292.70122297 -38.62000833 286.19465972 -38.62326813 279.6880703 C-38.62372783 278.76035075 -38.62418753 277.83263121 -38.62466116 276.87679895 C-38.62562037 274.99188839 -38.62659302 273.10697784 -38.62757893 271.2220673 C-38.63612337 253.56803759 -38.62631331 235.91405469 -38.61017783 218.26003266 C-38.59677329 203.1255882 -38.5991057 187.99121278 -38.61293411 172.85676956 C-38.62900283 155.26231153 -38.63530181 137.66789447 -38.62609732 120.07343012 C-38.62514172 118.19594324 -38.6241986 116.31845636 -38.62326813 114.44096947 C-38.62257389 113.05548942 -38.62257389 113.05548942 -38.62186562 111.64201988 C-38.61927978 105.14583832 -38.62363793 98.64968284 -38.63070679 92.15350533 C-38.63913624 84.23321534 -38.6368112 76.31301452 -38.62086456 68.3927347 C-38.61300161 64.35488237 -38.60985639 60.31717849 -38.61981201 56.27932739 C-38.62880047 52.57766442 -38.62375842 48.87628645 -38.60787936 45.17464907 C-38.60298055 43.21294683 -38.61269073 41.25122456 -38.62305105 39.28954357 C-38.5433518 27.21815481 -36.60244517 18.05333965 -28.22182083 9.13142776 C-19.97273046 1.30536767 -10.94771293 -0.02263712 0 0 Z " fill="#7A13A0" transform="translate(43.22182083129883,5.868572235107422)"/>
<path d="M0 0 C0.79885598 -0.00085442 1.59771197 -0.00170885 2.42077571 -0.00258917 C5.10628944 -0.00424054 7.79174114 0.00127184 10.47724915 0.00672913 C12.39884947 0.0070111 14.32044991 0.00685307 16.24205017 0.00628662 C21.46692189 0.00599904 26.69177078 0.01188953 31.91663718 0.01886058 C37.37391784 0.02510055 42.83119899 0.02569843 48.28848267 0.02688599 C58.62630868 0.0299974 68.96412414 0.03820824 79.30194551 0.04823548 C91.06962532 0.0594025 102.83730562 0.06490855 114.60498941 0.06993091 C138.81542624 0.080391 163.0258537 0.09798678 187.23628235 0.12025452 C187.23628235 1.11025452 187.23628235 2.10025452 187.23628235 3.12025452 C186.24628235 3.12025452 185.25628235 3.12025452 184.23628235 3.12025452 C184.23628235 2.46025452 184.23628235 1.80025452 184.23628235 1.12025452 C182.25628235 1.78025452 180.27628235 2.44025452 178.23628235 3.12025452 C178.23628235 2.46025452 178.23628235 1.80025452 178.23628235 1.12025452 C177.41128235 1.28525452 176.58628235 1.45025452 175.73628235 1.62025452 C171.8625837 2.17364004 168.14611545 2.12025452 164.23628235 2.12025452 C162.22907312 2.40699869 160.22449548 2.72261189 158.23628235 3.12025452 C158.23628235 2.46025452 158.23628235 1.80025452 158.23628235 1.12025452 C156.93304016 1.28267639 155.62979797 1.44509827 154.2870636 1.61244202 C147.41799379 2.29753338 140.55216278 2.27039656 133.65742493 2.25062561 C131.41085697 2.24522344 129.16448521 2.25062222 126.91792297 2.25697327 C125.47586525 2.25631311 124.03380764 2.25503324 122.5917511 2.25306702 C121.29906311 2.25193909 120.00637512 2.25081116 118.67451477 2.24964905 C115.72042804 2.13847487 113.10137259 1.81072858 110.23628235 1.12025452 C109.63895416 3.8828974 109.23628235 6.28058221 109.23628235 9.12025452 C108.0292511 10.76869202 108.0292511 10.76869202 106.42378235 12.49525452 C104.50482535 14.61011432 103.17311557 16.24371686 101.86128235 18.80775452 C99.26349685 22.50460311 96.66454273 24.14540007 92.23628235 25.12025452 C89.45039325 25.07808667 86.86238619 24.94204859 84.11128235 24.62025452 C83.43041565 24.54347473 82.74954895 24.46669495 82.04804993 24.3875885 C77.24753945 23.67343885 73.96611556 22.20624747 70.23628235 19.12025452 C68.99409485 17.04212952 68.99409485 17.04212952 68.36128235 14.87025452 C68.13698547 14.16384827 67.9126886 13.45744202 67.68159485 12.72962952 C67.08614495 9.24050203 67.23628235 5.6598267 67.23628235 2.12025452 C51.39628235 2.12025452 35.55628235 2.12025452 19.23628235 2.12025452 C18.90628235 9.71025452 18.57628235 17.30025452 18.23628235 25.12025452 C17.65969915 29.2284098 17.10723713 33.10569731 16.23628235 37.12025452 C15.5029511 40.55876326 15.00053222 43.93186309 14.67378235 47.43275452 C14.58999329 48.31576233 14.50620422 49.19877014 14.4198761 50.10853577 C14.32899719 51.10433655 14.32899719 51.10433655 14.23628235 52.12025452 C14.89628235 52.12025452 15.55628235 52.12025452 16.23628235 52.12025452 C16.69003235 52.59462952 17.14378235 53.06900452 17.61128235 53.55775452 C19.10819474 55.28084601 19.10819474 55.28084601 21.20503235 55.49916077 C23.23628235 56.12025452 23.23628235 56.12025452 24.43159485 57.65150452 C26.08079477 61.14392789 27.3546039 64.30080343 27.98628235 68.12025452 C29.03667921 73.72564338 31.77428514 78.53446062 34.40522766 83.53627014 C38.50981901 91.36504587 39.21837626 98.29058775 38.23628235 107.12025452 C36.00741096 113.52372216 33.06396375 118.40161725 28.23628235 123.12025452 C27.34715239 124.76679149 26.45832967 126.4134965 25.57221985 128.06166077 C23.26990712 131.60937658 20.28020097 134.55179281 17.3573761 137.59291077 C15.0950031 140.28859277 13.74440038 142.95363632 12.23628235 146.12025452 C10.62033403 148.1614524 8.95064415 150.16098389 7.23628235 152.12025452 C6.84440735 152.68486389 6.45253235 153.24947327 6.04878235 153.83119202 C4.86128235 155.49525452 4.86128235 155.49525452 2.23628235 158.12025452 C-3.09543764 159.00887451 -7.16581053 157.89634938 -11.76371765 155.12025452 C-14.6853898 151.15021765 -16.38763476 147.11159137 -15.76371765 142.12025452 C-16.3669989 142.28783264 -16.97028015 142.45541077 -17.59184265 142.62806702 C-18.79067078 142.93357483 -18.79067078 142.93357483 -20.01371765 143.24525452 C-21.19707703 143.5584967 -21.19707703 143.5584967 -22.40434265 143.87806702 C-24.76371765 144.12025452 -24.76371765 144.12025452 -28.76371765 142.12025452 C-28.76371765 103.51025452 -28.76371765 64.90025452 -28.76371765 25.12025452 C-27.43038432 24.45358785 -26.09705098 23.78692118 -24.76371765 23.12025452 C-24.03296117 20.80619232 -23.36233507 18.47196582 -22.76371765 16.12025452 C-22.10371765 16.12025452 -21.44371765 16.12025452 -20.76371765 16.12025452 C-21.42371765 14.80025452 -22.08371765 13.48025452 -22.76371765 12.12025452 C-21.96707703 11.43189514 -21.96707703 11.43189514 -21.15434265 10.72962952 C-16.69006019 6.85823161 -16.69006019 6.85823161 -12.45121765 2.74525452 C-8.92609796 -0.64930519 -4.57619469 -0.01777306 0 0 Z " fill="#480868" transform="translate(35.76371765136719,6.8797454833984375)"/>
<path d="M0 0 C1.24108311 2.97859946 2.28938989 5.85301239 3 9 C3.16822266 9.62028076 3.33644531 10.24056152 3.50976562 10.87963867 C4.3026451 14.30900033 4.33640772 17.80738399 4.5 21.3125 C4.75087547 26.60411407 5.17017836 31.76520852 6 37 C8.78938212 37.41890218 8.78938212 37.41890218 12 37 C17.16122703 32.81652095 18.70240377 28.30897323 20.75976562 22.26367188 C22.55502777 17.32055281 22.55502777 17.32055281 25.01171875 15.55078125 C27.40871813 14.88677946 29.52491913 14.86249551 32 15 C34.08435798 19.42926072 35 22.12171689 35 27 C35.65078288 29.25170877 36.42170156 31.44530064 37.19921875 33.65625 C38.83081444 38.43165202 40 42.91676009 40 48 C40.66 48 41.32 48 42 48 C42.433125 49.423125 42.433125 49.423125 42.875 50.875 C43.76825109 54.05211578 43.76825109 54.05211578 46 56 C46.73257072 57.66493345 47.45908434 59.33306584 48.140625 61.01953125 C49.01602368 63.0369273 50.05129958 64.89462207 51.125 66.8125 C53.46625256 71.45926081 53.82413809 75.85412765 54 81 C54.03996094 81.87785156 54.07992187 82.75570312 54.12109375 83.66015625 C54.35284458 93.13467542 52.6253053 101.93221951 50 111 C55.33853824 111.0247366 60.67704303 111.0428774 66.015625 111.05493164 C67.83138612 111.05995741 69.6471432 111.06677903 71.46289062 111.07543945 C74.0742289 111.08758189 76.68551362 111.09324591 79.296875 111.09765625 C80.10743347 111.10281754 80.91799194 111.10797882 81.75311279 111.11329651 C85.98820648 111.15610418 85.98820648 111.15610418 90.12139893 110.36790466 C90.74133728 110.24649612 91.36127563 110.12508759 92 110 C92.66 110.66 93.32 111.32 94 112 C90.95083138 113.52458431 87.77713542 113.13332946 84.4324646 113.12025452 C83.64263014 113.12110894 82.85279569 113.12196337 82.03902686 113.12284368 C79.37804601 113.12449793 76.71712744 113.11897801 74.05615234 113.11352539 C72.1544037 113.11324348 70.25265495 113.11340133 68.35090637 113.1139679 C63.17556055 113.11425572 58.00023774 113.10836136 52.82489729 113.10139394 C47.42099593 113.09515796 42.0170941 113.09455641 36.6131897 113.09336853 C26.37449505 113.09025594 16.13581103 113.08204352 5.89712107 113.07201904 C-5.75687385 113.06085567 -17.41086927 113.05534689 -29.06486821 113.05032361 C-53.04325138 113.03986085 -77.02162509 113.02226279 -101 113 C-101 112.67 -101 112.34 -101 112 C-91.77529992 111.23126591 -82.63777192 110.86090315 -73.3828125 110.90234375 C-72.15964325 110.9037587 -70.936474 110.90517365 -69.67623901 110.90663147 C-65.82579955 110.91216322 -61.97542145 110.92470229 -58.125 110.9375 C-55.49088627 110.94252384 -52.85677161 110.94708519 -50.22265625 110.95117188 C-43.81508375 110.96211016 -37.40754626 110.9787785 -31 111 C-30.3437549 107.20031288 -29.69652619 103.39914074 -29.05078125 99.59765625 C-28.86680786 98.53309204 -28.68283447 97.46852783 -28.49328613 96.3717041 C-26.38544332 83.90368259 -24.690738 71.40973251 -28 59 C-29 54.33333333 -29 54.33333333 -29 52 C-29.33 51.34 -29.66 50.68 -30 50 C-29.61366439 47.86073862 -29.14218615 45.73644806 -28.625 43.625 C-28.34914063 42.48289062 -28.07328125 41.34078125 -27.7890625 40.1640625 C-27.52867187 39.11992187 -27.26828125 38.07578125 -27 37 C-26.83757812 36.29101562 -26.67515625 35.58203125 -26.5078125 34.8515625 C-24.79845208 28.61897143 -21.57356427 23.02636216 -17.953125 17.7265625 C-16.75835661 15.89096441 -16.75835661 15.89096441 -17 13 C-15.34467377 11.98133771 -13.67739862 10.98189187 -12 10 C-11.67 9.01 -11.34 8.02 -11 7 C-10.34 6.67 -9.68 6.34 -9 6 C-8.835 5.175 -8.67 4.35 -8.5 3.5 C-8.335 2.675 -8.17 1.85 -8 1 C-5.29120665 -0.35439668 -2.99066732 -0.06501451 0 0 Z " fill="#6E0A98" transform="translate(488,288)"/>
<path d="M0 0 C1.65039063 1.23608398 1.65039063 1.23608398 3 3 C3.09179688 5.11352539 3.09179688 5.11352539 2.71875 7.53515625 C2.23727206 11.10288191 1.89573988 14.58465887 1.78125 18.18359375 C1.31506298 28.17104208 0.73652453 35.31767561 -6.546875 42.80078125 C-7.35640625 43.52652344 -8.1659375 44.25226563 -9 45 C-14.80471507 50.23425169 -17.735024 53.67684587 -19.42578125 61.44140625 C-20.50447817 66.24784489 -21.90465308 69.26976872 -26 72 C-26.99 72 -27.98 72 -29 72 C-29 71.34 -29 70.68 -29 70 C-29.64453125 69.76796875 -30.2890625 69.5359375 -30.953125 69.296875 C-33 68 -33 68 -33.609375 65.890625 C-33.65578125 65.01921875 -33.7021875 64.1478125 -33.75 63.25 C-33.80285156 62.27160156 -33.85570313 61.29320312 -33.91015625 60.28515625 C-33.95462891 58.65900391 -33.95462891 58.65900391 -34 57 C-34.03996094 55.80246094 -34.07992187 54.60492188 -34.12109375 53.37109375 C-34.22888909 47.39162286 -34.12398036 42.6451037 -32 37 C-31.65023242 35.67088318 -31.30903983 34.33917261 -31 33 C-30.34 33 -29.68 33 -29 33 C-27.41889397 29.8890275 -25.94499975 26.73885617 -24.5 23.5625 C-24.0771875 22.63566406 -23.654375 21.70882813 -23.21875 20.75390625 C-22.43659602 18.98653908 -21.68373635 17.20574698 -20.96875 15.41015625 C-20.06902459 13.17172651 -19.0818427 11.03023351 -18 8.875 C-17.67 8.21242188 -17.34 7.54984375 -17 6.8671875 C-14.48964847 2.1798905 -14.48964847 2.1798905 -12.01171875 1.26953125 C-3.17848411 -0.46742413 -3.17848411 -0.46742413 0 0 Z " fill="#63098A" transform="translate(56,251)"/>
<path d="M0 0 C179.85 0 359.7 0 545 0 C545 0.33 545 0.66 545 1 C536.585 1.495 536.585 1.495 528 2 C528.33 2.66 528.66 3.32 529 4 C528.34 4.66 527.68 5.32 527 6 C526.67 5.01 526.34 4.02 526 3 C525.37432129 3.00523682 524.74864258 3.01047363 524.10400391 3.01586914 C521.27767943 3.03661618 518.45137095 3.04965286 515.625 3.0625 C514.14773438 3.07506836 514.14773438 3.07506836 512.640625 3.08789062 C511.22910156 3.09272461 511.22910156 3.09272461 509.7890625 3.09765625 C508.48509521 3.10551147 508.48509521 3.10551147 507.15478516 3.11352539 C505 3 505 3 503 2 C502.67 2.66 502.34 3.32 502 4 C501.01 3.67 500.02 3.34 499 3 C497.64651249 2.95711723 496.29106149 2.95951966 494.9375 3 C491 3 491 3 489 2 C489 2.66 489 3.32 489 4 C487.98679687 3.85691406 487.98679687 3.85691406 486.953125 3.7109375 C486.06109375 3.60007812 485.1690625 3.48921875 484.25 3.375 C483.36828125 3.25898438 482.4865625 3.14296875 481.578125 3.0234375 C478.72692932 2.99751754 477.33134312 3.38233335 475 5 C474.731875 5.9075 474.46375 6.815 474.1875 7.75 C472.23067691 13.10551582 468.46107204 15.79183736 463.421875 18.265625 C456.83626761 21 456.83626761 21 453 21 C452.67 21.99 452.34 22.98 452 24 C451 21 451 21 451.77734375 18.95703125 C452.16019531 18.24933594 452.54304688 17.54164062 452.9375 16.8125 C453.31777344 16.09707031 453.69804687 15.38164062 454.08984375 14.64453125 C454.54037109 13.83048828 454.54037109 13.83048828 455 13 C455.66 13 456.32 13 457 13 C457.33 9.7 457.66 6.4 458 3 C453.71 2.67 449.42 2.34 445 2 C444.34 3.98 443.68 5.96 443 8 C442.32466564 9.47390492 441.61984233 10.93497149 440.875 12.375 C440.34519531 13.40753906 440.34519531 13.40753906 439.8046875 14.4609375 C439.53914063 14.96882813 439.27359375 15.47671875 439 16 C437.54952604 13.09905209 438.54643197 11.44027404 439.4375 8.375 C439.72496094 7.37210938 440.01242187 6.36921875 440.30859375 5.3359375 C440.53675781 4.56507812 440.76492188 3.79421875 441 3 C440.24074219 3 439.48148437 3 438.69921875 3 C434.79947917 3 430.89973958 3 427 3 C425.4385022 3.00785522 425.4385022 3.00785522 423.84545898 3.01586914 C420.4432718 3.03291568 417.04112922 3.04538666 413.63891602 3.05493164 C412.16950776 3.05998339 410.70010457 3.0668237 409.23071289 3.07543945 C407.11082735 3.08753682 404.99100744 3.09323297 402.87109375 3.09765625 C401.60193115 3.10289307 400.33276855 3.10812988 399.02514648 3.11352539 C396 3 396 3 394 2 C393.96261719 2.62648438 393.92523438 3.25296875 393.88671875 3.8984375 C393.78810547 5.12433594 393.78810547 5.12433594 393.6875 6.375 C393.62949219 7.18710938 393.57148438 7.99921875 393.51171875 8.8359375 C393 11 393 11 390 13 C390.33 9.7 390.66 6.4 391 3 C384.48551715 2.97533255 377.97106133 2.95715556 371.45654297 2.94506836 C369.23909024 2.94003091 367.02164084 2.93320078 364.80419922 2.92456055 C361.62206195 2.91246928 358.43996849 2.9067659 355.2578125 2.90234375 C353.76400558 2.89460182 353.76400558 2.89460182 352.24002075 2.88670349 C351.31921722 2.88662796 350.3984137 2.88655243 349.44970703 2.88647461 C348.23059128 2.88314369 348.23059128 2.88314369 346.98684692 2.87974548 C344.92472641 2.87415342 344.92472641 2.87415342 343 4 C342.34 3.67 341.68 3.34 341 3 C337.95826106 2.83329727 337.95826106 2.83329727 335 3 C334.67 3.33 334.34 3.66 334 4 C326.47761194 4.23880597 326.47761194 4.23880597 324 3 C322.00978479 3.09723451 322.00978479 3.09723451 319.875 3.4375 C317.956875 3.7159375 317.956875 3.7159375 316 4 C316 3.34 316 2.68 316 2 C313.45805839 2.14188985 310.91652007 2.28839155 308.375 2.4375 C307.66214844 2.47681641 306.94929688 2.51613281 306.21484375 2.55664062 C303.09021901 2.74297146 300.08658105 2.98466794 297 3.53125 C293.18253574 4.12772879 289.4806831 4.10781996 285.625 4.0625 C284.88894531 4.05798828 284.15289062 4.05347656 283.39453125 4.04882812 C281.59631842 4.03715142 279.79814803 4.01922011 278 4 C278 3.34 278 2.68 278 2 C277.01 2 276.02 2 275 2 C275 2.66 275 3.32 275 4 C274.2275293 3.9292627 273.45505859 3.85852539 272.65917969 3.78564453 C260.71697447 2.83421429 248.79093896 2.84808005 236.81640625 2.86962891 C233.21610423 2.87505105 229.61592353 2.86962324 226.015625 2.86328125 C223.72395806 2.863941 221.43229119 2.86522003 219.140625 2.8671875 C218.06572815 2.86516327 216.9908313 2.86313904 215.88336182 2.86105347 C214.89092468 2.86420563 213.89848755 2.86735779 212.87597656 2.87060547 C211.5681723 2.87179886 211.5681723 2.87179886 210.23394775 2.87301636 C207.82759147 2.91198101 207.82759147 2.91198101 205 4 C203.21120198 4.1190686 201.4177144 4.17522113 199.625 4.1875 C198.22121094 4.20876953 198.22121094 4.20876953 196.7890625 4.23046875 C194 4 194 4 191.81171131 3.00300026 C188.25419904 1.73395613 184.95104367 1.71152232 181.22355652 1.7215271 C180.447493 1.7157347 179.67142948 1.7099423 178.87184888 1.70397437 C176.27544485 1.68699014 173.67921874 1.68409923 171.08276367 1.68115234 C169.21997645 1.67185308 167.3571934 1.66168441 165.49441528 1.65071106 C160.43909631 1.62339683 155.38380523 1.60825739 150.32843184 1.59528303 C145.04463103 1.57965876 139.76088721 1.55286628 134.47712708 1.5272522 C124.47230425 1.48045198 114.46747072 1.44371386 104.46259433 1.41057932 C93.07209155 1.37236675 81.681646 1.32295431 70.29119146 1.27259517 C46.86083672 1.16925681 23.43044522 1.08000257 0 1 C0 0.67 0 0.34 0 0 Z " fill="#A36EBC" transform="translate(34,6)"/>
<path d="M0 0 C1.59752849 0.00031727 3.19507824 0.01165096 4.79248047 0.03173828 C6.05341019 0.03598312 6.05341019 0.03598312 7.33981323 0.04031372 C10.02990843 0.05152648 12.71967307 0.07663275 15.40966797 0.10205078 C17.23127775 0.11207918 19.05289274 0.12120527 20.87451172 0.12939453 C25.34469155 0.15146937 29.81462368 0.18600644 34.28466797 0.22705078 C35.02555405 2.53788974 35.6883158 4.87476403 36.28466797 7.22705078 C35.05419922 9.48486328 35.05419922 9.48486328 33.09716797 11.35205078 C30.86982065 13.58803123 29.31994712 15.15956023 27.84716797 17.97705078 C25.29483471 21.65241067 22.66344072 23.26309074 18.28466797 24.22705078 C15.49877887 24.18488293 12.91077181 24.04884485 10.15966797 23.72705078 C9.47880127 23.650271 8.79793457 23.57349121 8.09643555 23.49438477 C3.29514048 22.78011839 0.01458786 21.31407215 -3.71533203 18.22705078 C-6.20109759 14.11451509 -6.75390351 10.03705185 -6.52783203 5.28955078 C-5.33884495 0.80798409 -4.67784509 0.28587173 0 0 Z " fill="#540979" transform="translate(109.71533203125,7.77294921875)"/>
<path d="M0 0 C3.66639248 -0.11728126 7.3322952 -0.18760891 11 -0.25 C12.02996094 -0.28351562 13.05992187 -0.31703125 14.12109375 -0.3515625 C22.01740807 -0.45215249 27.37100948 0.75107267 33.3125 6.0703125 C33.869375 6.74835937 34.42625 7.42640625 35 8.125 C35.5775 8.80820313 36.155 9.49140625 36.75 10.1953125 C38 12 38 12 38 14 C37.01 14.33 36.02 14.66 35 15 C35 27.21 35 39.42 35 52 C34.01 52.495 34.01 52.495 33 53 C31.86526545 43.76001869 31.93001172 34.57424562 32.03710938 25.27929688 C32.04967773 23.76432617 32.04967773 23.76432617 32.0625 22.21875 C32.07410156 21.31060547 32.08570313 20.40246094 32.09765625 19.46679688 C32.00615437 17.15545948 31.65516672 15.21054284 31 13 C24.62893233 12.54492374 20.2746069 13.27192833 15 17 C12.88323722 19.05785472 10.89061737 21.15987722 8.95703125 23.390625 C6.47419422 25.43239917 5.1273748 25.1323009 2 25 C1.97494385 24.31373535 1.9498877 23.6274707 1.92407227 22.92041016 C1.80828573 19.82174183 1.68548115 16.72339077 1.5625 13.625 C1.52318359 12.54476563 1.48386719 11.46453125 1.44335938 10.3515625 C1.40146484 9.3203125 1.35957031 8.2890625 1.31640625 7.2265625 C1.27974854 6.27346191 1.24309082 5.32036133 1.20532227 4.33837891 C1.14236535 1.97867651 1.14236535 1.97867651 0 0 Z " fill="#430760" transform="translate(561,7)"/>
<path d="M0 0 C0.66 0.33 1.32 0.66 2 1 C-0.52623786 3.52623786 -3.24530578 5.72438303 -6 8 C-5.67 9.32 -5.34 10.64 -5 12 C-5.99 12.495 -5.99 12.495 -7 13 C-7.83047008 14.85240164 -7.83047008 14.85240164 -8.5 17 C-9.21875 19.1875 -9.21875 19.1875 -10 21 C-10.66 21.33 -11.32 21.66 -12 22 C-12.33 135.52 -12.66 249.04 -13 366 C-13.33 366 -13.66 366 -14 366 C-15.12215478 358.79952279 -15.14541203 351.70970483 -15.14044189 344.43205261 C-15.143029 343.05530363 -15.14604311 341.67855539 -15.1494453 340.30180818 C-15.15747766 336.53299026 -15.15930275 332.76419144 -15.16004276 328.99536598 C-15.16189984 324.9250417 -15.1694503 320.85472717 -15.17617798 316.78440857 C-15.18973371 307.89186669 -15.19578134 298.99932935 -15.20018864 290.10677886 C-15.20295499 284.55135678 -15.20719299 278.99593643 -15.21169281 273.44051552 C-15.22388047 258.04978005 -15.23418169 242.65904597 -15.2375679 227.26830578 C-15.23778747 226.28417177 -15.23800703 225.30003776 -15.23823325 224.28608151 C-15.23845153 223.29964374 -15.23866981 222.31320596 -15.2388947 221.29687613 C-15.23933816 219.29809646 -15.23978473 217.29931678 -15.24023438 215.30053711 C-15.2404558 214.3090812 -15.24067723 213.3176253 -15.24090537 212.29612527 C-15.24485408 196.22825937 -15.26231257 180.1604388 -15.2855939 164.09259041 C-15.30932037 147.58393107 -15.32177029 131.07529446 -15.32293582 114.56661779 C-15.3238517 105.30236897 -15.32958237 96.03817927 -15.34775543 86.77394676 C-15.3631737 78.88650921 -15.36826659 70.99914907 -15.36001733 63.11169931 C-15.35611732 59.09006844 -15.35700867 55.06859339 -15.37107468 51.04698181 C-15.38385216 47.35997533 -15.38258265 43.67324113 -15.37048396 39.98623482 C-15.36761511 38.03228493 -15.37943334 36.07833015 -15.39190602 34.12441796 C-15.34115233 25.03303704 -14.75871361 15.29251084 -8.625 8.0625 C-8.01785156 7.34320312 -7.41070312 6.62390625 -6.78515625 5.8828125 C-4.68673044 3.66959316 -2.5030965 1.74458241 0 0 Z " fill="#AF98BD" transform="translate(20,11)"/>
<path d="M0 0 C2.48439136 3.78573922 2.30494022 7.63273419 2.25 12 C2.24202393 13.13187744 2.24202393 13.13187744 2.23388672 14.28662109 C2.08394652 23.22419559 0.47169988 31.42884348 -2 40 C3.33853824 40.0247366 8.67704303 40.0428774 14.015625 40.05493164 C15.83138612 40.05995741 17.6471432 40.06677903 19.46289062 40.07543945 C22.0742289 40.08758189 24.68551362 40.09324591 27.296875 40.09765625 C28.10743347 40.10281754 28.91799194 40.10797882 29.75311279 40.11329651 C33.98820648 40.15610418 33.98820648 40.15610418 38.12139893 39.36790466 C38.74133728 39.24649612 39.36127563 39.12508759 40 39 C40.66 39.66 41.32 40.32 42 41 C38.95083138 42.52458431 35.77713542 42.13332946 32.4324646 42.12025452 C31.64263014 42.12110894 30.85279569 42.12196337 30.03902686 42.12284368 C27.37804601 42.12449793 24.71712744 42.11897801 22.05615234 42.11352539 C20.1544037 42.11324348 18.25265495 42.11340133 16.35090637 42.1139679 C11.17556055 42.11425572 6.00023774 42.10836136 0.82489729 42.10139394 C-4.57900407 42.09515796 -9.9829059 42.09455641 -15.3868103 42.09336853 C-25.62550495 42.09025594 -35.86418897 42.08204352 -46.10287893 42.07201904 C-57.75687385 42.06085567 -69.41086927 42.05534689 -81.06486821 42.05032361 C-105.04325138 42.03986085 -129.02162509 42.02226279 -153 42 C-153 41.67 -153 41.34 -153 41 C-143.90487356 40.24605359 -134.89642 39.86083036 -125.77172852 39.90234375 C-124.53247116 39.90380402 -123.29321381 39.90526428 -122.0164032 39.9067688 C-119.35378846 39.91054421 -116.69125346 39.91610252 -114.02865791 39.92483521 C-109.81239712 39.93852284 -105.59614663 39.94428523 -101.37986755 39.94897461 C-92.4407306 39.95999751 -83.50161964 39.97956512 -74.5625 40 C-64.88348765 40.02208275 -55.20448556 40.04261958 -45.52545303 40.05341816 C-41.33923337 40.0583786 -37.15306277 40.06820316 -32.9668628 40.08184814 C-29.7520843 40.09108858 -26.53729857 40.09383027 -23.32250977 40.09765625 C-22.17277679 40.10282257 -21.02304382 40.10798889 -19.83847046 40.11331177 C-14.4477379 40.11366813 -9.30888006 39.96050838 -4 39 C-1.07125825 26.83177536 -0.69326201 15.35572139 -1.06591797 2.87915039 C-1 1 -1 1 0 0 Z " fill="#5B1079" transform="translate(540,359)"/>
<path d="M0 0 C26.43336964 -0.02333103 52.86673774 -0.04098019 79.30011559 -0.05181217 C91.57280191 -0.05697469 103.84548184 -0.06401656 116.11816406 -0.07543945 C126.81148712 -0.08538763 137.50480555 -0.09185375 148.19813311 -0.09408849 C153.86335041 -0.09539537 159.52855448 -0.0984798 165.19376755 -0.10573006 C170.52061386 -0.11249236 175.84744142 -0.11461652 181.17429161 -0.11310768 C183.13432225 -0.11338391 185.09435348 -0.11538779 187.05438042 -0.11920547 C189.72055233 -0.12414599 192.38665251 -0.12299694 195.05282593 -0.12025452 C196.22888116 -0.12462378 196.22888116 -0.12462378 197.42869508 -0.12908131 C202.77175758 -0.11412121 202.77175758 -0.11412121 205 1 C204.91291331 2.45945288 204.80473093 3.91765868 204.6875 5.375 C204.62949219 6.18710938 204.57148438 6.99921875 204.51171875 7.8359375 C204 10 204 10 201 12 C201.33 8.7 201.66 5.4 202 2 C195.48551715 1.97533255 188.97106133 1.95715556 182.45654297 1.94506836 C180.23909024 1.94003091 178.02164084 1.93320078 175.80419922 1.92456055 C172.62206195 1.91246928 169.43996849 1.9067659 166.2578125 1.90234375 C164.76400558 1.89460182 164.76400558 1.89460182 163.24002075 1.88670349 C162.31921722 1.88662796 161.3984137 1.88655243 160.44970703 1.88647461 C159.23059128 1.88314369 159.23059128 1.88314369 157.98684692 1.87974548 C155.92472641 1.87415342 155.92472641 1.87415342 154 3 C153.01 2.505 153.01 2.505 152 2 C148.95826106 1.83329727 148.95826106 1.83329727 146 2 C145.67 2.33 145.34 2.66 145 3 C137.47761194 3.23880597 137.47761194 3.23880597 135 2 C133.00978479 2.09723451 133.00978479 2.09723451 130.875 2.4375 C128.956875 2.7159375 128.956875 2.7159375 127 3 C127 2.34 127 1.68 127 1 C124.45805839 1.14188985 121.91652007 1.28839155 119.375 1.4375 C118.66214844 1.47681641 117.94929688 1.51613281 117.21484375 1.55664062 C114.09021901 1.74297146 111.08658105 1.98466794 108 2.53125 C104.18253574 3.12772879 100.4806831 3.10781996 96.625 3.0625 C95.88894531 3.05798828 95.15289062 3.05347656 94.39453125 3.04882812 C92.59631842 3.03715142 90.79814803 3.01922011 89 3 C89 2.34 89 1.68 89 1 C88.01 1 87.02 1 86 1 C86 1.66 86 2.32 86 3 C84.84129395 2.89389404 84.84129395 2.89389404 83.65917969 2.78564453 C71.71697447 1.83421429 59.79093896 1.84808005 47.81640625 1.86962891 C44.21610423 1.87505105 40.61592353 1.86962324 37.015625 1.86328125 C34.72395806 1.863941 32.43229119 1.86522003 30.140625 1.8671875 C29.06572815 1.86516327 27.9908313 1.86313904 26.88336182 1.86105347 C25.89092468 1.86420563 24.89848755 1.86735779 23.87597656 1.87060547 C22.5681723 1.87179886 22.5681723 1.87179886 21.23394775 1.87301636 C18.82759147 1.91198101 18.82759147 1.91198101 16 3 C14.21120198 3.1190686 12.4177144 3.17522113 10.625 3.1875 C9.22121094 3.20876953 9.22121094 3.20876953 7.7890625 3.23046875 C4.83881846 2.98668108 2.67635888 2.23112508 0 1 C0 0.67 0 0.34 0 0 Z " fill="#5F1382" transform="translate(223,7)"/>
<path d="M0 0 C0.33 0 0.66 0 1 0 C1 52.14 1 104.28 1 158 C-2.29201287 154.70798713 -1.45967456 150.35792824 -1.65625 145.87109375 C-1.7696875 144.92363281 -1.883125 143.97617188 -2 143 C-2.66 142.67 -3.32 142.34 -4 142 C-5.19811544 137.42537741 -4.83154187 133.61967708 -4 129 C-3.67 129.66 -3.34 130.32 -3 131 C-2.34 131 -1.68 131 -1 131 C-0.67 123.41 -0.34 115.82 0 108 C-0.66 108 -1.32 108 -2 108 C-2 103.71 -2 99.42 -2 95 C-1.34 95 -0.68 95 0 95 C-0.11810088 90.0519151 -0.2423384 85.10403724 -0.37231445 80.15625 C-0.41567817 78.47237358 -0.4573522 76.78845277 -0.49731445 75.10449219 C-0.55498234 72.68671276 -0.6186865 70.26915705 -0.68359375 67.8515625 C-0.70030624 67.0963028 -0.71701874 66.34104309 -0.73423767 65.56289673 C-0.77555107 61.65260201 -0.77555107 61.65260201 -2 58 C-2.039992 56.00039988 -2.04346799 53.99952758 -2 52 C-1.67 52 -1.34 52 -1 52 C-0.91312504 48.87517438 -0.85965432 45.75065754 -0.8125 42.625 C-0.78736328 41.73554687 -0.76222656 40.84609375 -0.73632812 39.9296875 C-0.72666016 39.07890625 -0.71699219 38.228125 -0.70703125 37.3515625 C-0.6913208 36.56604004 -0.67561035 35.78051758 -0.65942383 34.97119141 C-0.77181396 34.32069824 -0.8842041 33.67020508 -1 33 C-1.99 32.34 -2.98 31.68 -4 31 C-3.67 30.67 -3.34 30.34 -3 30 C-2.63239269 27.67182036 -2.29758419 25.3381615 -2 23 C-1.67 23 -1.34 23 -1 23 C-0.67 15.41 -0.34 7.82 0 0 Z " fill="#4F0B6F" transform="translate(604,34)"/>
<path d="M0 0 C0.66 0.33 1.32 0.66 2 1 C-0.52623786 3.52623786 -3.24530578 5.72438303 -6 8 C-5.67 9.32 -5.34 10.64 -5 12 C-5.99 12.495 -5.99 12.495 -7 13 C-7.83047008 14.85240164 -7.83047008 14.85240164 -8.5 17 C-9.21875 19.1875 -9.21875 19.1875 -10 21 C-10.66 21.33 -11.32 21.66 -12 22 C-12.33 67.54 -12.66 113.08 -13 160 C-13.33 160 -13.66 160 -14 160 C-14.80776685 142.88231093 -15.17499865 125.79977012 -15.203125 108.6640625 C-15.20595238 107.47610455 -15.20877975 106.28814659 -15.21169281 105.06418991 C-15.22649404 98.80743961 -15.23584963 92.55071132 -15.24023438 86.29394531 C-15.24576902 79.87118936 -15.26995528 73.44864003 -15.29820633 67.02594948 C-15.31685611 62.03808996 -15.32203902 57.05028081 -15.32357025 52.06238937 C-15.32657928 49.69346328 -15.33454797 47.3245377 -15.34775543 44.95564651 C-15.36490616 41.65076967 -15.36291642 38.34640779 -15.35644531 35.04150391 C-15.3656601 34.08239609 -15.37487488 33.12328827 -15.3843689 32.13511658 C-15.33321145 23.74876428 -14.22511534 14.66354094 -8.625 8.0625 C-8.01785156 7.34320312 -7.41070312 6.62390625 -6.78515625 5.8828125 C-4.68673044 3.66959316 -2.5030965 1.74458241 0 0 Z " fill="#A88EBA" transform="translate(20,11)"/>
<path d="M0 0 C0.33 0 0.66 0 1 0 C1 38.28 1 76.56 1 116 C0.34 115.01 -0.32 114.02 -1 113 C-2.485 113.99 -2.485 113.99 -4 115 C-3.55116102 110.36199721 -2.9841704 105.90954746 -1.97998047 101.35961914 C-1.02225346 96.58191816 -0.78847413 92.15639681 -0.90625 87.30078125 C-0.92743397 85.45397033 -0.94537573 83.60712076 -0.9609375 81.76025391 C-0.9702832 80.71049377 -0.97962891 79.66073364 -0.98925781 78.5791626 C-1.01130549 71.23315127 -0.88480286 63.88809044 -0.78125 56.54296875 C-0.75862406 54.88013826 -0.73608221 53.21730663 -0.71362305 51.55447388 C-0.65577885 47.29992965 -0.59629133 43.04540993 -0.53643799 38.79089355 C-0.47505897 34.40553205 -0.4153425 30.0201479 -0.35546875 25.63476562 C-0.23856804 17.08982129 -0.1198818 8.54490303 0 0 Z " fill="#470B62" transform="translate(604,197)"/>
<path d="M0 0 C0.99 0 1.98 0 3 0 C3 1.32 3 2.64 3 4 C10.46276256 5.04921702 17.83938605 5.11928424 25.36150169 5.07516479 C27.58600697 5.06225014 29.81045171 5.05584808 32.0349884 5.05102539 C36.75251972 5.03967659 41.47000038 5.02042052 46.1875 5 C51.66926538 4.97632909 57.15100217 4.95597546 62.63280678 4.94406128 C64.81637585 4.9376154 66.99985545 4.92511294 69.18339539 4.91235352 C70.52875696 4.90871928 71.87411934 4.90536776 73.21948242 4.90234375 C74.3870256 4.89710693 75.55456879 4.89187012 76.75749207 4.88647461 C79.92432798 4.9973506 82.89117194 5.40399475 86 6 C86 6.33 86 6.66 86 7 C74.83882244 7.04629386 63.67766763 7.08185419 52.51641369 7.10362434 C47.33406883 7.11407171 42.15178954 7.1282483 36.96948242 7.15087891 C31.97040981 7.1725733 26.97140036 7.18456145 21.97228432 7.18975449 C20.06285927 7.19345637 18.15343777 7.200685 16.24403954 7.21146011 C13.57431886 7.22592979 10.90486085 7.22797984 8.23510742 7.22705078 C7.44172974 7.23424133 6.64835205 7.24143188 5.83093262 7.24884033 C2.01307433 7.23441687 0.2555949 7.1703966 -3 5 C-1.125 1.125 -1.125 1.125 0 0 Z " fill="#540E70" transform="translate(29,394)"/>
<path d="M0 0 C2.48439136 3.78573922 2.30494022 7.63273419 2.25 12 C2.24468262 12.75458496 2.23936523 13.50916992 2.23388672 14.28662109 C2.08394652 23.22419559 0.47169988 31.42884348 -2 40 C3.33853824 40.0247366 8.67704303 40.0428774 14.015625 40.05493164 C15.83138612 40.05995741 17.6471432 40.06677903 19.46289062 40.07543945 C22.0742289 40.08758189 24.68551362 40.09324591 27.296875 40.09765625 C28.10743347 40.10281754 28.91799194 40.10797882 29.75311279 40.11329651 C33.98820648 40.15610418 33.98820648 40.15610418 38.12139893 39.36790466 C39.05130646 39.18579185 39.05130646 39.18579185 40 39 C40.66 39.66 41.32 40.32 42 41 C39.6699002 42.1650499 38.32752923 42.1209358 35.73388672 42.11352539 C34.41274368 42.11341209 34.41274368 42.11341209 33.06491089 42.11329651 C32.11278717 42.10813522 31.16066345 42.10297394 30.1796875 42.09765625 C29.20589142 42.0962413 28.23209534 42.09482635 27.22879028 42.09336853 C24.11082927 42.08775973 20.9929394 42.07520573 17.875 42.0625 C15.76432395 42.05748613 13.65364678 42.05292303 11.54296875 42.04882812 C6.36195479 42.03778745 1.18098248 42.02104073 -4 42 C-2 28 -2 28 -1.4375 24.34912109 C-1.06479958 21.49604945 -0.89561792 18.8460668 -0.9375 15.9765625 C-0.94523438 15.10128906 -0.95296875 14.22601563 -0.9609375 13.32421875 C-0.98027344 11.98810547 -0.98027344 11.98810547 -1 10.625 C-1.0253797 8.82557921 -1.04645666 7.02609075 -1.0625 5.2265625 C-1.07410156 4.43846191 -1.08570313 3.65036133 -1.09765625 2.83837891 C-1 1 -1 1 0 0 Z " fill="#4B066C" transform="translate(540,359)"/>
<path d="M0 0 C8.70113334 -0.06942477 17.40217176 -0.12277271 26.10352135 -0.15543652 C30.14365781 -0.17111131 34.18360519 -0.19238225 38.22363281 -0.22631836 C42.12045787 -0.25884776 46.01710074 -0.27683934 49.91405106 -0.28463173 C51.40286758 -0.29018685 52.89167382 -0.30103436 54.38041306 -0.31719017 C56.46134966 -0.33888007 58.54152765 -0.34197061 60.62255859 -0.34057617 C62.40126846 -0.35056892 62.40126846 -0.35056892 64.21591187 -0.36076355 C65.13466095 -0.24171158 66.05341003 -0.12265961 67 0 C67.99 1.485 67.99 1.485 69 3 C68.34 3.66 67.68 4.32 67 5 C66.505 3.515 66.505 3.515 66 2 C65.37432129 2.00523682 64.74864258 2.01047363 64.10400391 2.01586914 C61.27767943 2.03661618 58.45137095 2.04965286 55.625 2.0625 C54.14773438 2.07506836 54.14773438 2.07506836 52.640625 2.08789062 C51.22910156 2.09272461 51.22910156 2.09272461 49.7890625 2.09765625 C48.48509521 2.10551147 48.48509521 2.10551147 47.15478516 2.11352539 C45 2 45 2 43 1 C42.67 1.66 42.34 2.32 42 3 C41.01 2.67 40.02 2.34 39 2 C37.64651249 1.95711723 36.29106149 1.95951966 34.9375 2 C31 2 31 2 29 1 C29 1.66 29 2.32 29 3 C27.845 2.835 26.69 2.67 25.5 2.5 C20.18931114 1.88169013 14.92127706 1.96632819 9.5859375 2.125 C5.75838627 2.19188924 3.32219712 1.85124493 0 0 Z " fill="#510F71" transform="translate(494,7)"/>
<path d="M0 0 C0.66 0.66 1.32 1.32 2 2 C1.1646875 1.94779297 1.1646875 1.94779297 0.3125 1.89453125 C-5.90268274 1.67406024 -11.64747851 2.11547009 -16.5390625 6.32421875 C-21.72743109 12.10424341 -22.37499749 18.59865446 -23 26 C-22.21625 25.938125 -21.4325 25.87625 -20.625 25.8125 C-19.325625 25.9053125 -19.325625 25.9053125 -18 26 C-15.03031916 30.45452125 -15.65096053 34.90576317 -16.5 40 C-16.665 40.66 -16.83 41.32 -17 42 C-17.33 42 -17.66 42 -18 42 C-18.77916092 36.97874074 -19.13016601 33.02296004 -18 28 C-19.65 28 -21.3 28 -23 28 C-25.27160105 23.17284776 -25.75712672 19.26517419 -24.046875 14.1484375 C-23.61890625 13.23320312 -23.1909375 12.31796875 -22.75 11.375 C-22.33234375 10.45460937 -21.9146875 9.53421875 -21.484375 8.5859375 C-19.37327822 4.90818468 -17.21046631 2.57641253 -13.375 0.75 C-8.93661398 -0.236308 -4.52711677 -0.55367615 0 0 Z " fill="#470667" transform="translate(38,224)"/>
<path d="M0 0 C1.2065625 0.0309375 1.2065625 0.0309375 2.4375 0.0625 C1.4375 2.0625 1.4375 2.0625 -0.5546875 3.6796875 C-3.29453641 6.93125916 -3.38787885 10.10242143 -3.6875 14.1875 C-4.32263514 21.82263514 -4.32263514 21.82263514 -6.5625 24.0625 C-6.79151406 27.04378309 -6.79151406 27.04378309 -6.65234375 30.53125 C-6.63236328 31.82417969 -6.61238281 33.11710937 -6.59179688 34.44921875 C-6.54823647 36.51009348 -6.49978581 38.57071301 -6.44604492 40.63134766 C-6.39787184 42.61854654 -6.36857739 44.60617499 -6.33984375 46.59375 C-6.31140381 47.78548828 -6.28296387 48.97722656 -6.25366211 50.20507812 C-6.40653687 51.61950195 -6.40653687 51.61950195 -6.5625 53.0625 C-7.5525 53.7225 -8.5425 54.3825 -9.5625 55.0625 C-9.39492187 53.82757813 -9.22734375 52.59265625 -9.0546875 51.3203125 C-8.29164141 44.47967127 -8.58254504 37.63830327 -8.77734375 30.76953125 C-8.86292079 24.61576425 -8.32179556 20.55227341 -5.5625 15.0625 C-5.52083998 12.7295386 -5.52083998 10.3954614 -5.5625 8.0625 C-3.63333498 0.08861793 -3.63333498 0.08861793 0 0 Z " fill="#680992" transform="translate(80.5625,249.9375)"/>
<path d="M0 0 C0.33 0 0.66 0 1 0 C1 20.46 1 40.92 1 62 C-2.16130459 57.78492722 -2.3367697 56.93928888 -2 52 C-1.67 52 -1.34 52 -1 52 C-0.91312504 48.87517438 -0.85965432 45.75065754 -0.8125 42.625 C-0.78736328 41.73554687 -0.76222656 40.84609375 -0.73632812 39.9296875 C-0.72666016 39.07890625 -0.71699219 38.228125 -0.70703125 37.3515625 C-0.6913208 36.56604004 -0.67561035 35.78051758 -0.65942383 34.97119141 C-0.77181396 34.32069824 -0.8842041 33.67020508 -1 33 C-1.99 32.34 -2.98 31.68 -4 31 C-3.67 30.67 -3.34 30.34 -3 30 C-2.63239269 27.67182036 -2.29758419 25.3381615 -2 23 C-1.67 23 -1.34 23 -1 23 C-0.67 15.41 -0.34 7.82 0 0 Z " fill="#4F0B6E" transform="translate(604,34)"/>
<path d="M0 0 C0.33 0.66 0.66 1.32 1 2 C2.32 1.67 3.64 1.34 5 1 C5 10.24 5 19.48 5 29 C1.70798713 25.70798713 2.54032544 21.35792824 2.34375 16.87109375 C2.17359375 15.44990234 2.17359375 15.44990234 2 14 C1.34 13.67 0.68 13.34 0 13 C-1.19811544 8.42537741 -0.83154187 4.61967708 0 0 Z " fill="#440666" transform="translate(600,163)"/>
<path d="M0 0 C0 0.66 0 1.32 0 2 C-0.763125 2.226875 -1.52625 2.45375 -2.3125 2.6875 C-5.66149136 4.32305392 -6.29865362 5.72112491 -8 9 C-8.67053233 10.98519807 -9.29460736 12.98660253 -9.875 15 C-11.43924984 19.91535431 -13.0561499 22.57507755 -17 26 C-18.16953416 28.42383077 -18.16953416 28.42383077 -19 31 C-19.98482022 33.00751815 -20.98152514 35.00934459 -22 37 C-23.32 37 -24.64 37 -26 37 C-26 35.02 -26 33.04 -26 31 C-25.01 32.32 -24.02 33.64 -23 35 C-22.731875 34.13375 -22.46375 33.2675 -22.1875 32.375 C-19.16129032 23.77419355 -19.16129032 23.77419355 -15 21 C-13.8931662 18.37703448 -12.91358449 15.81341268 -12 13.125 C-8.85 3.95390625 -8.85 3.95390625 -6 1 C-3 0 -3 0 0 0 Z " fill="#460664" transform="translate(582,322)"/>
<path d="M0 0 C1.15949582 3.47848747 0.83619752 5.34481973 0.25 8.9375 C0.01023437 10.49791016 0.01023437 10.49791016 -0.234375 12.08984375 C-1 15 -1 15 -2.53515625 17.0234375 C-4.4672897 19.63052956 -4.50176994 21.46405166 -4.6875 24.6875 C-4.75582031 25.821875 -4.82414062 26.95625 -4.89453125 28.125 C-4.97142327 30.95006976 -4.99362512 33.73943918 -4.94921875 36.5625 C-4.93866455 37.32989502 -4.92811035 38.09729004 -4.91723633 38.88793945 C-4.88937116 40.40506103 -4.84655728 41.9219914 -4.7878418 43.43823242 C-4.7421875 45.54296875 -4.7421875 45.54296875 -5 49 C-5.99 49.66 -6.98 50.32 -8 51 C-8.59386521 27.03830028 -8.59386521 27.03830028 -5 16 C-4.26597455 13.27747057 -3.57457711 10.54405979 -2.875 7.8125 C-1.12757202 1.12757202 -1.12757202 1.12757202 0 0 Z " fill="#64098E" transform="translate(95,163)"/>
<path d="M0 0 C0.99 0 1.98 0 3 0 C3 1.32 3 2.64 3 4 C10.18315628 4.93128358 17.10364132 5.05786587 24.33398438 4.87304688 C25.13771484 4.86208984 25.94144531 4.85113281 26.76953125 4.83984375 C27.84618042 4.81458618 27.84618042 4.81458618 28.94458008 4.78881836 C31.32974401 5.03387915 32.93096493 5.81981471 35 7 C30.07040878 7.04942899 25.14096175 7.08573318 20.21118164 7.10986328 C18.53407275 7.11992237 16.85698139 7.13357122 15.17993164 7.15087891 C12.76964998 7.17513152 10.35960014 7.1864839 7.94921875 7.1953125 C6.82407112 7.21079636 6.82407112 7.21079636 5.67619324 7.22659302 C1.89699221 7.227408 0.22585601 7.15057067 -3 5 C-1.125 1.125 -1.125 1.125 0 0 Z " fill="#400B57" transform="translate(29,394)"/>
<path d="M0 0 C0.66 0.33 1.32 0.66 2 1 C-0.52623786 3.52623786 -3.24530578 5.72438303 -6 8 C-5.67 9.32 -5.34 10.64 -5 12 C-5.99 12.495 -5.99 12.495 -7 13 C-7.90343684 14.88263881 -7.90343684 14.88263881 -8.625 17.0625 C-8.88539062 17.79597656 -9.14578125 18.52945312 -9.4140625 19.28515625 C-9.60742188 19.85105469 -9.80078125 20.41695312 -10 21 C-10.99 21 -11.98 21 -13 21 C-12.86305827 13.46820501 -10.07680064 9.44019269 -5 4 C-2.0625 1.4375 -2.0625 1.4375 0 0 Z " fill="#846495" transform="translate(20,11)"/>
<path d="M0 0 C0.74958984 0.00902344 1.49917969 0.01804687 2.27148438 0.02734375 C4.11862654 0.05087422 5.96560412 0.08674439 7.8125 0.125 C8.10546875 6.08203125 8.10546875 6.08203125 7.8125 8.125 C6.8225 9.115 5.8325 10.105 4.8125 11.125 C5.1425 8.155 5.4725 5.185 5.8125 2.125 C1.5225 1.795 -2.7675 1.465 -7.1875 1.125 C-7.8475 3.105 -8.5075 5.085 -9.1875 7.125 C-9.86283436 8.59890492 -10.56765767 10.05997149 -11.3125 11.5 C-11.84230469 12.53253906 -11.84230469 12.53253906 -12.3828125 13.5859375 C-12.64835937 14.09382813 -12.91390625 14.60171875 -13.1875 15.125 C-14.61559691 12.26880618 -13.75483756 10.66998306 -12.9375 7.625 C-12.68484375 6.6453125 -12.4321875 5.665625 -12.171875 4.65625 C-9.96619491 -1.01549881 -5.18221407 -0.11767473 0 0 Z " fill="#5B1080" transform="translate(486.1875,6.875)"/>
<path d="M0 0 C11.55 0 23.1 0 35 0 C35 0.99 35 1.98 35 3 C34.01 3 33.02 3 32 3 C32 2.34 32 1.68 32 1 C30.02 1.66 28.04 2.32 26 3 C26 2.34 26 1.68 26 1 C25.175 1.165 24.35 1.33 23.5 1.5 C19.62630135 2.05338552 15.9098331 2 12 2 C9.99279077 2.28674418 7.98821313 2.60235737 6 3 C6 2.34 6 1.68 6 1 C3.69 1.33 1.38 1.66 -1 2 C-0.67 1.34 -0.34 0.68 0 0 Z " fill="#530F75" transform="translate(188,7)"/>
<path d="M0 0 C5.94482112 -0.02467203 11.8896126 -0.04284663 17.83447266 -0.05493164 C19.85791543 -0.05996831 21.88135456 -0.06679789 23.90478516 -0.07543945 C26.80892843 -0.08753412 29.71302369 -0.09323488 32.6171875 -0.09765625 C33.52556366 -0.10281754 34.43393982 -0.10797882 35.36984253 -0.11329651 C36.21056305 -0.11337204 37.05128357 -0.11344757 37.91748047 -0.11352539 C39.03000687 -0.11685631 39.03000687 -0.11685631 40.16500854 -0.12025452 C42 0 42 0 44 1 C43.91291331 2.45945288 43.80473093 3.91765868 43.6875 5.375 C43.60048828 6.59316406 43.60048828 6.59316406 43.51171875 7.8359375 C43 10 43 10 40 12 C40.33 8.7 40.66 5.4 41 2 C20.705 1.505 20.705 1.505 0 1 C0 0.67 0 0.34 0 0 Z " fill="#671A8B" transform="translate(384,7)"/>
<path d="M0 0 C0.99 0.66 1.98 1.32 3 2 C0.6699002 3.1650499 -0.67247077 3.1209358 -3.26611328 3.11352539 C-4.58725632 3.11341209 -4.58725632 3.11341209 -5.93508911 3.11329651 C-6.88721283 3.10813522 -7.83933655 3.10297394 -8.8203125 3.09765625 C-9.79410858 3.0962413 -10.76790466 3.09482635 -11.77120972 3.09336853 C-14.88917073 3.08775973 -18.0070606 3.07520573 -21.125 3.0625 C-23.23567605 3.05748613 -25.34635322 3.05292303 -27.45703125 3.04882812 C-32.63804521 3.03778745 -37.81901752 3.02104073 -43 3 C-38.94325252 0.73581037 -35.39185864 0.75895065 -30.83984375 0.83984375 C-30.05356094 0.84504532 -29.26727814 0.85024689 -28.45716858 0.85560608 C-25.95042245 0.87338464 -23.44408906 0.90455337 -20.9375 0.9375 C-18.42738101 0.96513654 -15.91732058 0.98984347 -13.40711975 1.00868225 C-11.84671293 1.0209185 -10.28633688 1.03850182 -8.72605896 1.06199646 C-5.53440378 1.09145398 -3.05272217 1.01757406 0 0 Z " fill="#320944" transform="translate(579,398)"/>
<path d="M0 0 C1.57619796 3.15239592 0.68832865 5.61571748 0 9 C-1.3125 11.5625 -1.3125 11.5625 -3 14 C-3.680625 15.051875 -4.36125 16.10375 -5.0625 17.1875 C-7 20 -7 20 -9 22 C-9.71408334 23.98356483 -10.38617742 25.98315437 -11 28 C-11.98120464 24.94736336 -11.98120464 23.05263664 -11 20 C-10.34 20 -9.68 20 -9 20 C-7.41889397 16.8890275 -5.94499975 13.73885617 -4.5 10.5625 C-4.0771875 9.63566406 -3.654375 8.70882813 -3.21875 7.75390625 C-2.08418971 5.19023636 -1.02310166 2.60985656 0 0 Z " fill="#520875" transform="translate(36,264)"/>
<path d="M0 0 C2.34046759 2.34046759 2.25284854 2.88985213 2.4375 6.0625 C2.8081737 10.21272156 3.82577844 13.68077118 5.234375 17.58203125 C6.61893453 21.9546963 7.28152635 26.47784232 8 31 C0.79808093 23.79808093 0.16195069 9.55509057 0 0 Z " fill="#56067E" transform="translate(520,304)"/>
<path d="M0 0 C0 3.89348606 -1.40911546 5.6357634 -3.4375 8.9375 C-5.5267424 12.34359822 -7.07420858 15.13978042 -8 19 C-9.5131095 21.16300243 -11.24370267 23.01853634 -13 25 C-14.32 24.67 -15.64 24.34 -17 24 C-16.42121094 23.82984375 -15.84242188 23.6596875 -15.24609375 23.484375 C-11.8059691 21.21090132 -10.72936768 17.93361254 -9.0625 14.25 C-6.57815645 8.81332033 -4.02339972 4.45022995 0 0 Z " fill="#620A8B" transform="translate(144,78)"/>
<path d="M0 0 C0.33 0 0.66 0 1 0 C1 5.61 1 11.22 1 17 C0.34 16.01 -0.32 15.02 -1 14 C-1.99 14.66 -2.98 15.32 -4 16 C-3.6083965 10.04492601 -2.62875405 5.37180176 0 0 Z " fill="#380452" transform="translate(604,296)"/>
<path d="M0 0 C0.375 2.1875 0.375 2.1875 0 5 C-1.82869674 7.08832653 -3.69052559 8.38336791 -6 10 C-6.66 10 -7.32 10 -8 10 C-8.33 8.02 -8.66 6.04 -9 4 C-8.34 3.67 -7.68 3.34 -7 3 C-7 3.66 -7 4.32 -7 5 C-6.34 5 -5.68 5 -5 5 C-4.8453125 4.0409375 -4.8453125 4.0409375 -4.6875 3.0625 C-4.460625 2.381875 -4.23375 1.70125 -4 1 C-1 0 -1 0 0 0 Z " fill="#3E1B52" transform="translate(601,383)"/>
<path d="M0 0 C1.01767676 3.16610547 0.79242075 4.83031702 0 8 C-0.16916962 13.15967327 0.15236323 17.91417938 1 23 C0.34 23.33 -0.32 23.66 -1 24 C-4.61083066 6.7518357 -4.61083066 6.7518357 -1.5 1.4375 C-0.7575 0.7259375 -0.7575 0.7259375 0 0 Z " fill="#65098D" transform="translate(69,344)"/>
<path d="M0 0 C0.6875 1.6875 0.6875 1.6875 1 4 C-0.88630041 8.08698423 -3.38402711 11.32732438 -7 14 C-10.10502882 14.12002632 -12.97295891 13.66608094 -16 13 C-16 12.67 -16 12.34 -16 12 C-15.11248047 12.01353516 -15.11248047 12.01353516 -14.20703125 12.02734375 C-9.37706272 11.90584651 -9.37706272 11.90584651 -5.359375 9.515625 C-4.09048786 7.72695276 -3.01078542 5.94512488 -2 4 C-1.3503125 2.7934375 -1.3503125 2.7934375 -0.6875 1.5625 C-0.460625 1.046875 -0.23375 0.53125 0 0 Z " fill="#3D0558" transform="translate(599,312)"/>
<path d="M0 0 C0.33 0 0.66 0 1 0 C1 9.9 1 19.8 1 30 C0.01 30 -0.98 30 -2 30 C-2 27.69 -2 25.38 -2 23 C-1.67 23 -1.34 23 -1 23 C-0.67 15.41 -0.34 7.82 0 0 Z " fill="#370850" transform="translate(604,34)"/>
<path d="M0 0 C0.33 0 0.66 0 1 0 C1.23828125 2.26171875 1.23828125 2.26171875 1 5 C-0.64453125 6.95703125 -0.64453125 6.95703125 -2.8125 8.8125 C-6.91478039 12.62435346 -8.47185039 15.65147637 -10 21 C-11.29893162 17.10320515 -10.61411215 15.74180545 -9 12 C-7.03725333 9.19236238 -5.11835146 6.55917573 -2 5 C-1.27840576 3.35636866 -0.60648579 1.68949614 0 0 Z " fill="#650B8C" transform="translate(527,83)"/>
<path d="M0 0 C2.39529819 1.52428067 4.19423241 3.17733704 6.0625 5.3125 C6.0625 5.9725 6.0625 6.6325 6.0625 7.3125 C4.25 7.9375 4.25 7.9375 2.0625 8.3125 C-1.35661851 6.03308766 -1.03868729 5.90775083 -1.9375 2.3125 C-2.9275 1.6525 -3.9175 0.9925 -4.9375 0.3125 C-1.9375 -0.6875 -1.9375 -0.6875 0 0 Z " fill="#3A0952" transform="translate(592.9375,13.6875)"/>
<path d="M0 0 C-2.98646769 1.99097846 -5.59687262 2.94124926 -9 4 C-9.12375 4.763125 -9.2475 5.52625 -9.375 6.3125 C-10 9 -10 9 -12 12 C-12.66 11.67 -13.32 11.34 -14 11 C-12.49760034 7.38058265 -11.17854707 4.2678206 -9 1 C-6.01331342 -0.13288112 -3.16738721 -0.08798298 0 0 Z " fill="#530878" transform="translate(51,252)"/>
<path d="M0 0 C0.99 0 1.98 0 3 0 C3 5.28 3 10.56 3 16 C0.14206684 13.14206684 0.59200059 10.85334416 0.375 6.875 C0.30023437 5.59367188 0.22546875 4.31234375 0.1484375 2.9921875 C0.09945312 2.00476563 0.05046875 1.01734375 0 0 Z " fill="#4F0970" transform="translate(602,176)"/>
<path d="M0 0 C0.33 0 0.66 0 1 0 C1 4.29 1 8.58 1 13 C0.34 13 -0.32 13 -1 13 C-1.33 13.66 -1.66 14.32 -2 15 C-2.625 12.1875 -2.625 12.1875 -3 9 C-2.34 8.01 -1.68 7.02 -1 6 C-0.60986284 4.0103005 -0.26797351 2.00980131 0 0 Z " fill="#3D1F4F" transform="translate(604,367)"/>
<path d="M0 0 C0 3.56033629 -0.81684216 4.5581202 -2.8125 7.4375 C-3.33457031 8.19933594 -3.85664062 8.96117187 -4.39453125 9.74609375 C-5.89778832 11.85650574 -7.43415827 13.93572217 -9 16 C-9.66 15.67 -10.32 15.34 -11 15 C-10.57847656 14.30132812 -10.15695312 13.60265625 -9.72265625 12.8828125 C-9.17480469 11.97273437 -8.62695312 11.06265625 -8.0625 10.125 C-7.24458984 8.76761719 -7.24458984 8.76761719 -6.41015625 7.3828125 C-5.56101983 5.94798364 -4.74562276 4.49124552 -4 3 C-3.34 3 -2.68 3 -2 3 C-2 2.34 -2 1.68 -2 1 C-1.34 0.67 -0.68 0.34 0 0 Z " fill="#60088A" transform="translate(543,192)"/>
<path d="M0 0 C0.99 0 1.98 0 3 0 C3.33 2.31 3.66 4.62 4 7 C-0.75 6.125 -0.75 6.125 -3 5 C-1.125 1.125 -1.125 1.125 0 0 Z " fill="#501F66" transform="translate(29,394)"/>
<path d="M0 0 C1.32341307 4.03325887 0.51033679 6.26833092 -1.03125 10.09375 C-2.28430484 12.55943856 -3.87897532 14.24466923 -6 16 C-4.25192871 10.53262809 -2.34205919 5.24175152 0 0 Z " fill="#5E0A86" transform="translate(543,198)"/>
<path d="M0 0 C5.55927932 2.77963966 8.00132965 6.17054481 10 12 C7.03 11.505 7.03 11.505 4 11 C4 10.01 4 9.02 4 8 C4.66 8 5.32 8 6 8 C4.02 5.36 2.04 2.72 0 0 Z " fill="#A184AE" transform="translate(593,13)"/>
<path d="M0 0 C5.62541841 0.45003347 8.61487125 1.68441485 13 5 C11 7 11 7 8.375 7.125 C7.59125 7.08375 6.8075 7.0425 6 7 C6 5.68 6 4.36 6 3 C4.02 2.34 2.04 1.68 0 1 C0 0.67 0 0.34 0 0 Z " fill="#9173A3" transform="translate(580,7)"/>
<path d="M0 0 C1.32 0 2.64 0 4 0 C2.73058503 3.91402949 1.48832306 5.79072873 -2 8 C-2.66 7.67 -3.32 7.34 -4 7 C-2.68 4.69 -1.36 2.38 0 0 Z " fill="#680893" transform="translate(483,33)"/>
<path d="M0 0 C1.32 0.33 2.64 0.66 4 1 C2 5 0 9 -2 13 C-3.45047396 10.09905209 -2.45356803 8.44027404 -1.5625 5.375 C-1.27503906 4.37210938 -0.98757813 3.36921875 -0.69140625 2.3359375 C-0.46324219 1.56507812 -0.23507812 0.79421875 0 0 Z " fill="#630B8B" transform="translate(475,9)"/>
<path d="M0 0 C1.32830615 3.98491845 0.23204404 5.40048548 -1.4375 9.1875 C-1.91058594 10.27417969 -2.38367188 11.36085938 -2.87109375 12.48046875 C-3.42990234 13.72763672 -3.42990234 13.72763672 -4 15 C-4.33 15 -4.66 15 -5 15 C-4.88490339 13.58249437 -4.75746342 12.16598831 -4.625 10.75 C-4.55539063 9.96109375 -4.48578125 9.1721875 -4.4140625 8.359375 C-3.98492887 5.914123 -3.21399362 4.15163097 -2 2 C-1.34 2 -0.68 2 0 2 C0 1.34 0 0.68 0 0 Z " fill="#680A92" transform="translate(70,305)"/>
<path d="M0 0 C0.66 0 1.32 0 2 0 C1.01 5.28 0.02 10.56 -1 16 C-1.33 16 -1.66 16 -2 16 C-2.05423638 14.08364783 -2.09289963 12.16685075 -2.125 10.25 C-2.14820313 9.18265625 -2.17140625 8.1153125 -2.1953125 7.015625 C-2.00487687 4.07529894 -1.52670104 2.47638122 0 0 Z " fill="#600A88" transform="translate(532,217)"/>
<path d="M0 0 C0.99 0 1.98 0 3 0 C3.19656224 2.20754516 3.38185459 4.41609539 3.5625 6.625 C3.66691406 7.85476562 3.77132812 9.08453125 3.87890625 10.3515625 C3.99191061 13.75627462 3.69045563 16.67558398 3 20 C2.67 20 2.34 20 2 20 C1.93941406 18.89140625 1.87882813 17.7828125 1.81640625 16.640625 C1.73197049 15.1770718 1.64732401 13.71353075 1.5625 12.25 C1.52318359 11.52039062 1.48386719 10.79078125 1.44335938 10.0390625 C1.23852902 6.5727027 0.9147998 3.34666974 0 0 Z " fill="#440663" transform="translate(592,20)"/>
<path d="M0 0 C3.3125 -0.3125 3.3125 -0.3125 7 0 C9.0625 2.25 9.0625 2.25 10 5 C9.1875 7.3125 9.1875 7.3125 8 9 C7.34 6.69 6.68 4.38 6 2 C2.39007621 2.65585189 2.39007621 2.65585189 -1 4 C-0.67 2.68 -0.34 1.36 0 0 Z " fill="#5E0A84" transform="translate(531,76)"/>
<path d="M0 0 C0.33 0 0.66 0 1 0 C1 3.3 1 6.6 1 10 C0.01 10 -0.98 10 -2 10 C-2.17942163 6.05272412 -2.09350689 3.4019487 0 0 Z " fill="#3C0553" transform="translate(604,166)"/>
<path d="M0 0 C0.66 0.33 1.32 0.66 2 1 C0.06745228 3.0245738 -1.63158688 4.42105792 -4 6 C-5.19232613 8.05003955 -5.19232613 8.05003955 -6 10 C-6.66 9.01 -7.32 8.02 -8 7 C-5.36 4.69 -2.72 2.38 0 0 Z " fill="#370C50" transform="translate(21,12)"/>
<path d="M0 0 C1.65 0 3.3 0 5 0 C3.49776416 4.20626034 0.71449966 5.73900021 -3 8 C-3 6.68 -3 5.36 -3 4 C-1.68 3.34 -0.36 2.68 1 2 C0.67 1.34 0.34 0.68 0 0 Z " fill="#6B0C92" transform="translate(243,8)"/>
<path d="M0 0 C0.33 0.99 0.66 1.98 1 3 C1.99 3 2.98 3 4 3 C4 3.99 4 4.98 4 6 C4.66 6.33 5.32 6.66 6 7 C2.51460083 6.35455571 -0.02819057 4.89865603 -3 3 C-2.01 2.01 -1.02 1.02 0 0 Z " fill="#8A689A" transform="translate(22,393)"/>
<path d="M0 0 C0 0.99 0 1.98 0 3 C-2.5 5.1875 -2.5 5.1875 -5 7 C-5.66 6.67 -6.32 6.34 -7 6 C-6.25 4.0625 -6.25 4.0625 -5 2 C-2.9375 1.3125 -2.9375 1.3125 -1 1 C-0.67 0.67 -0.34 0.34 0 0 Z " fill="#A892B2" transform="translate(597,390)"/>
<path d="M0 0 C0.99 0 1.98 0 3 0 C2.91291331 1.45945288 2.80473093 2.91765868 2.6875 4.375 C2.62949219 5.18710938 2.57148438 5.99921875 2.51171875 6.8359375 C2 9 2 9 -1 11 C-0.67 7.37 -0.34 3.74 0 0 Z " fill="#680C91" transform="translate(425,8)"/>
<path d="M0 0 C0.75 1.75 0.75 1.75 1 4 C-0.9375 6.25 -0.9375 6.25 -3 8 C-3.99 7.67 -4.98 7.34 -6 7 C-5.071875 6.1028125 -5.071875 6.1028125 -4.125 5.1875 C-1.86323046 2.99188856 -1.86323046 2.99188856 0 0 Z " fill="#6C0C95" transform="translate(84,364)"/>
<path d="M0 0 C3.86107457 2.57404971 3.94319692 4.61020259 5 9 C4.34 9 3.68 9 3 9 C0.56839395 5.63316085 0 4.26649636 0 0 Z " fill="#53067A" transform="translate(531,342)"/>
<path d="M0 0 C0.99 0.66 1.98 1.32 3 2 C1.35 4.31 -0.3 6.62 -2 9 C-3 6 -3 6 -1.5625 2.8125 C-1.046875 1.884375 -0.53125 0.95625 0 0 Z " fill="#630A8A" transform="translate(148,69)"/>
<path d="M0 0 C2 2 2 2 2.125 5.625 C2.08375 6.73875 2.0425 7.8525 2 9 C0.68 7.68 -0.64 6.36 -2 5 C-1.34 3.35 -0.68 1.7 0 0 Z " fill="#78588C" transform="translate(603,25)"/>
</svg>
